<mxfile host="app.diagrams.net" modified="2024-06-09T02:49:50.141Z" agent="Mozilla/5.0 (Macintosh; Intel Mac OS X 10_15_7) AppleWebKit/537.36 (KHTML, like Gecko) Chrome/125.0.0.0 Safari/537.36" etag="wsp1sQ5eBh5vso_qxQal" version="24.4.6" type="device" pages="2">
  <diagram name="Page-1" id="-L9P3CJLe1H8UbRwAlWn">
    <mxGraphModel dx="1434" dy="820" grid="1" gridSize="10" guides="1" tooltips="1" connect="1" arrows="1" fold="1" page="1" pageScale="1" pageWidth="850" pageHeight="1100" math="0" shadow="0">
      <root>
        <mxCell id="0" />
        <mxCell id="1" parent="0" />
        <mxCell id="mIhOMeMMmywrf6HBkGnQ-1" value="" style="rounded=1;whiteSpace=wrap;html=1;fillColor=#1A1A1A;" vertex="1" parent="1">
          <mxGeometry x="170" y="140" width="80" height="20" as="geometry" />
        </mxCell>
        <mxCell id="mIhOMeMMmywrf6HBkGnQ-2" value="" style="rounded=1;whiteSpace=wrap;html=1;fillColor=#1A1A1A;" vertex="1" parent="1">
          <mxGeometry x="260" y="140" width="30" height="20" as="geometry" />
        </mxCell>
        <mxCell id="mIhOMeMMmywrf6HBkGnQ-3" value="" style="rounded=1;whiteSpace=wrap;html=1;fillColor=#1A1A1A;" vertex="1" parent="1">
          <mxGeometry x="300" y="140" width="50" height="20" as="geometry" />
        </mxCell>
        <mxCell id="mIhOMeMMmywrf6HBkGnQ-4" value="" style="rounded=1;whiteSpace=wrap;html=1;fillColor=#1A1A1A;" vertex="1" parent="1">
          <mxGeometry x="360" y="140" width="110" height="20" as="geometry" />
        </mxCell>
        <mxCell id="mIhOMeMMmywrf6HBkGnQ-5" value="" style="rounded=1;whiteSpace=wrap;html=1;fillColor=#1A1A1A;" vertex="1" parent="1">
          <mxGeometry x="480" y="140" width="50" height="20" as="geometry" />
        </mxCell>
        <mxCell id="mIhOMeMMmywrf6HBkGnQ-9" value="" style="rounded=1;whiteSpace=wrap;html=1;fillColor=#1A1A1A;" vertex="1" parent="1">
          <mxGeometry x="170" y="170" width="20" height="20" as="geometry" />
        </mxCell>
        <mxCell id="mIhOMeMMmywrf6HBkGnQ-10" value="" style="rounded=1;whiteSpace=wrap;html=1;fillColor=#1A1A1A;" vertex="1" parent="1">
          <mxGeometry x="200" y="170" width="140" height="20" as="geometry" />
        </mxCell>
        <mxCell id="mIhOMeMMmywrf6HBkGnQ-11" value="" style="rounded=1;whiteSpace=wrap;html=1;fillColor=#1A1A1A;" vertex="1" parent="1">
          <mxGeometry x="350" y="170" width="50" height="20" as="geometry" />
        </mxCell>
        <mxCell id="mIhOMeMMmywrf6HBkGnQ-12" value="" style="rounded=1;whiteSpace=wrap;html=1;fillColor=#1A1A1A;" vertex="1" parent="1">
          <mxGeometry x="410" y="170" width="50" height="20" as="geometry" />
        </mxCell>
        <mxCell id="mIhOMeMMmywrf6HBkGnQ-13" value="" style="rounded=1;whiteSpace=wrap;html=1;fillColor=#1A1A1A;" vertex="1" parent="1">
          <mxGeometry x="470" y="170" width="60" height="20" as="geometry" />
        </mxCell>
        <mxCell id="mIhOMeMMmywrf6HBkGnQ-14" value="" style="rounded=1;whiteSpace=wrap;html=1;fillColor=#1A1A1A;" vertex="1" parent="1">
          <mxGeometry x="170" y="200" width="30" height="20" as="geometry" />
        </mxCell>
        <mxCell id="mIhOMeMMmywrf6HBkGnQ-15" value="" style="rounded=1;whiteSpace=wrap;html=1;fillColor=#1A1A1A;" vertex="1" parent="1">
          <mxGeometry x="210" y="200" width="80" height="20" as="geometry" />
        </mxCell>
        <mxCell id="mIhOMeMMmywrf6HBkGnQ-16" value="" style="rounded=1;whiteSpace=wrap;html=1;fillColor=#1A1A1A;" vertex="1" parent="1">
          <mxGeometry x="300" y="200" width="110" height="20" as="geometry" />
        </mxCell>
        <mxCell id="mIhOMeMMmywrf6HBkGnQ-17" value="" style="rounded=1;whiteSpace=wrap;html=1;fillColor=#1A1A1A;" vertex="1" parent="1">
          <mxGeometry x="420" y="200" width="50" height="20" as="geometry" />
        </mxCell>
        <mxCell id="mIhOMeMMmywrf6HBkGnQ-18" value="" style="rounded=1;whiteSpace=wrap;html=1;fillColor=#1A1A1A;" vertex="1" parent="1">
          <mxGeometry x="480" y="200" width="50" height="20" as="geometry" />
        </mxCell>
      </root>
    </mxGraphModel>
  </diagram>
  <diagram id="1wQh-ptLwXGKhZmS9WOq" name="Page-2">
    <mxGraphModel dx="1434" dy="820" grid="1" gridSize="10" guides="1" tooltips="1" connect="1" arrows="1" fold="1" page="1" pageScale="1" pageWidth="850" pageHeight="1100" math="0" shadow="0">
      <root>
        <mxCell id="0" />
        <mxCell id="1" parent="0" />
        <mxCell id="oLnxOHwvnyGeQR_MNEbW-1" value="" style="rounded=1;whiteSpace=wrap;html=1;" vertex="1" parent="1">
          <mxGeometry x="480" y="140" width="50" height="20" as="geometry" />
        </mxCell>
      </root>
    </mxGraphModel>
  </diagram>
</mxfile>
